#!OML:ASF I:\Random Stuff\random\construction\7_22_03\Session 2\subj1.ASF
:FULLY-SPECIFIED
:DEGREES
751
root -18.5716 17.6833 1.37963 10.8267 -47.2047 360.295
lowerback 8.6806 0.0223249 -2.32243
upperback 2.24628 -0.174218 0.980664
thorax -2.52824 -0.0895069 2.34018
lowerneck -22.4457 -1.23292 -0.251546
upperneck 36.2256 -4.21019 4.53521
head 17.1424 -1.22874 1.15287
rclavicle -4.35338e-014 2.06736e-014
rhumerus -23.0948 40.3829 -98.446
rradius 72.8227
rwrist -26.0874
rhand -47.5163 34.7187
rfingers 7.12502
rthumb -20.2036 5.74937
lclavicle -4.35338e-014 2.06736e-014
lhumerus -6.15482 -15.7807 82.6622
lradius 73.6448
lwrist 25.0286
lhand -10.3798 66.0235
lfingers 7.12502
lthumb 15.6179 -815.413
rfemur -33.0748 9.99107 8.44518
rtibia 14.199
rfoot 2.65488 -17.3967
rtoes -7.56918
lfemur -18.3619 -3.16404 -17.7053
ltibia 23.8369
lfoot -14.4 12.1753
ltoes -26.6788
752
root -18.7366 17.6882 1.42531 11.0882 -46.7249 360.831
lowerback 8.73537 -0.0953785 -2.28216
upperback 2.32511 -0.326228 1.05889
thorax -2.46794 -0.167358 2.41478
lowerneck -21.6806 -1.0683 -0.559937
upperneck 35.4183 -3.86985 4.86335
head 16.5365 -1.10294 1.41005
rclavicle -2.73329e-014 -3.91606e-014
rhumerus -22.7945 40.9047 -98.2206
rradius 72.6206
rwrist -25.6225
rhand -47.5123 35.037
rfingers 7.12502
rthumb -20.1997 6.06721
lclavicle -2.73329e-014 -3.91606e-014
lhumerus -4.87996 -15.7697 82.5151
lradius 72.0482
lwrist 25.3942
lhand -10.1392 65.4174
lfingers 7.12502
lthumb 15.8496 -814.789
rfemur -33.7434 13.1159 5.85494
rtibia 12.6293
rfoot 4.31987 -19.323
rtoes -3.63622
lfemur -18.3453 -2.90624 -17.8352
ltibia 23.279
lfoot -14.5267 11.5095
ltoes -26.8964
753
root -18.9132 17.6683 1.46411 11.1579 -46.1748 361.427
lowerback 8.89719 -0.155152 -2.21594
upperback 2.47576 -0.403355 1.09845
thorax -2.39724 -0.209529 2.4273
lowerneck -21.3863 -1.05133 -0.728394
upperneck 34.9235 -3.77796 5.01696
head 16.2185 -1.07074 1.51616
rclavicle 5.14852e-014 -4.35338e-014
rhumerus -22.4063 41.1651 -97.9218
rradius 72.4611
rwrist -25.3626
rhand -47.3153 34.5105
rfingers 7.12502
rthumb -20.0104 5.52081
lclavicle 5.14852e-014 -4.35338e-014
lhumerus -3.88856 -16.2414 82.1506
lradius 70.8922
lwrist 25.6186
lhand -10.1056 64.9067
lfingers 7.12502
lthumb 15.882 -814.275
rfemur -33.4942 9.51825 7.46495
rtibia 12.4448
rfoot 8.58101 -11.6085
rtoes -16.1843
lfemur -18.2232 -3.1244 -17.9384
ltibia 22.8353
lfoot -14.4526 11.4285
ltoes -29.1079
754
root -19.1033 17.6456 1.49836 11.0227 -45.569 362.013
lowerback 9.20116 -0.198613 -2.17419
upperback 2.70363 -0.46411 1.16933
thorax -2.32546 -0.245067 2.48555
lowerneck -21.1803 -1.02825 -0.713996
upperneck 34.4365 -3.63811 4.88416
head 15.9156 -1.03231 1.47436
rclavicle 7.33515e-014 -3.26007e-014
rhumerus -21.9707 41.2861 -97.6267
rradius 72.2467
rwrist -25.1762
rhand -46.9924 33.733
rfingers 7.12502
rthumb -19.7 4.7112
lclavicle 7.33515e-014 -3.26007e-014
lhumerus -3.0556 -16.9537 81.6818
lradius 69.9383
lwrist 25.6825
lhand -10.0837 64.6135
lfingers 7.12502
lthumb 15.9031 -813.98
rfemur -33.5863 7.38138 8.40847
rtibia 13.2296
rfoot 9.56916 -7.06425
rtoes -11.8164
lfemur -17.8283 -3.97079 -17.9168
ltibia 22.4415
lfoot -14.5726 11.8067
ltoes -30.6435
755
root -19.298 17.6219 1.53932 10.5974 -44.2518 362.892
lowerback 9.581 -0.540768 -2.0626
upperback 2.92405 -0.914599 1.236
thorax -2.28061 -0.473694 2.54506
lowerneck -21.2372 -1.15911 -0.806889
upperneck 34.7834 -3.77357 4.73794
head 16.1033 -1.11744 1.40795
rclavicle -4.75095e-014 6.36111e-015
rhumerus -21.7206 41.549 -97.4899
rradius 72.01
rwrist -25.0209
rhand -47.1204 34.1118
rfingers 7.12502
rthumb -19.823 5.10271
lclavicle -4.75095e-014 6.36111e-015
lhumerus -1.98108 -17.4845 81.3483
lradius 68.6208
lwrist 25.8086
lhand -9.85148 64.075
lfingers 7.12502
lthumb 16.1267 -813.424
rfemur -33.2397 5.67566 8.74254
rtibia 14.3089
rfoot 7.72401 -7.82985
rtoes -16.3255
lfemur -17.5146 -3.96744 -18.1701
ltibia 22.0659
lfoot -14.6683 10.5909
ltoes -31.5691
756
root -19.5054 17.6012 1.57036 10.0776 -42.9735 363.73
lowerback 10.1269 -0.842438 -2.02033
upperback 3.15723 -1.32055 1.29027
thorax -2.31478 -0.679266 2.63234
lowerneck -21.1748 -1.19843 -0.935719
upperneck 34.7518 -3.81333 4.83581
head 16.0802 -1.13608 1.46542
rclavicle 4.33351e-014 -7.15625e-015
rhumerus -21.6474 41.7861 -97.4624
rradius 71.905
rwrist -25.0062
rhand -47.5489 34.9818
rfingers 7.12502
rthumb -20.2349 6.01577
lclavicle 4.33351e-014 -7.15625e-015
lhumerus -0.340882 -17.9069 81.2647
lradius 66.5834
lwrist 25.9096
lhand -9.7147 63.7046
lfingers 7.12502
lthumb 16.2584 -813.043
rfemur -33.0245 4.70994 8.82892
rtibia 15.533
rfoot 6.33189 -9.01676
rtoes -19.672
lfemur -17.0245 -4.59384 -18.2887
ltibia 21.7263
lfoot -14.832 9.96955
ltoes -31.825
757
root -19.7102 17.5902 1.5957 9.69222 -41.6981 364.28
lowerback 10.8827 -1.09458 -1.6319
upperback 3.35976 -1.62668 1.32925
thorax -2.51097 -0.832261 2.50741
lowerneck -21.0348 -1.16733 -1.01663
upperneck 34.5961 -3.72407 4.86629
head 15.9678 -1.10567 1.50832
rclavicle -1.05356e-014 2.42517e-014
rhumerus -21.6653 41.7308 -97.5352
rradius 71.8193
rwrist -24.8877
rhand -47.5952 34.5706
rfingers 7.12502
rthumb -20.2794 5.60929
lclavicle -1.05356e-014 2.42517e-014
lhumerus 0.807819 -18.6255 80.9619
lradius 65.11
lwrist 26.3329
lhand -9.69805 63.3549
lfingers 7.12502
lthumb 16.2744 -812.692
rfemur -32.8569 4.07058 9.04505
rtibia 16.7322
rfoot 5.50607 -9.89454
rtoes -23.1632
lfemur -16.6124 -4.6421 -18.2617
ltibia 21.5566
lfoot -14.8005 8.97937
ltoes -33.5629
758
root -19.9205 17.5739 1.61298 9.71301 -40.6838 364.3
lowerback 11.7058 -1.24929 -0.958448
upperback 3.51249 -1.76152 1.46627
thorax -2.81154 -0.898991 2.30968
lowerneck -20.917 -1.17569 -1.24866
upperneck 34.3156 -3.70271 5.10494
head 15.813 -1.09336 1.65146
rclavicle 0 -3.26007e-014
rhumerus -21.7605 41.4675 -97.7311
rradius 71.5997
rwrist -24.4217
rhand -47.712 34.0402
rfingers 7.12502
rthumb -20.3916 5.0909
lclavicle 0 -3.26007e-014
lhumerus 1.92599 -19.4477 80.6086
lradius 63.6425
lwrist 26.8275
lhand -9.78067 62.9918
lfingers 7.12502
lthumb 16.1948 -812.335
rfemur -32.6751 3.55727 9.74598
rtibia 17.7003
rfoot 4.79578 -10.3188
rtoes -24.8363
lfemur -16.3652 -4.0643 -17.8263
ltibia 21.647
lfoot -14.7901 7.70375
ltoes -35.3003
759
root -20.121 17.5753 1.62867 10.3104 -39.6975 363.791
lowerback 12.4065 -1.43277 0.205041
upperback 3.61088 -1.85624 1.73599
thorax -3.11496 -0.947482 1.96885
lowerneck -20.9254 -1.20347 -1.52274
upperneck 34.0268 -3.66424 5.27554
head 15.6825 -1.08613 1.7751
rclavicle 1.308e-013 -9.54166e-015
rhumerus -21.8296 41.2349 -97.8127
rradius 71.328
rwrist -23.9902
rhand -48.3735 35.3382
rfingers 7.12502
rthumb -21.0272 6.45818
lclavicle 1.308e-013 -9.54166e-015
lhumerus 2.89546 -20.2097 80.3662
lradius 62.385
lwrist 27.0692
lhand -9.98321 62.7274
lfingers 7.12502
lthumb 15.9998 -812.087
rfemur -32.6121 2.59516 11.0029
rtibia 18.4461
rfoot 3.97879 -10.1428
rtoes -24.5836
lfemur -16.5547 -3.85726 -16.8848
ltibia 21.9972
lfoot -14.7114 6.7795
ltoes -35.4744
760
root -20.3097 17.6008 1.64562 11.2084 -38.7789 362.97
lowerback 13.033 -1.60825 1.66046
upperback 3.72267 -1.88344 2.09544
thorax -3.37145 -0.966351 1.54736
lowerneck -20.9319 -1.23229 -1.58712
upperneck 33.5588 -3.56595 5.12003
head 15.4494 -1.07238 1.72944
rclavicle -1.66184e-013 2.54444e-014
rhumerus -21.815 41.0993 -97.7123
rradius 70.9676
rwrist -23.715
rhand -49.1246 37.0474
rfingers 7.12502
rthumb -21.7487 8.24922
lclavicle -1.66184e-013 2.54444e-014
lhumerus 3.73013 -20.9679 80.228
lradius 61.3584
lwrist 27.0292
lhand -10.2592 62.4831
lfingers 7.12502
lthumb 15.734 -811.863
rfemur -32.5914 1.1966 12.6445
rtibia 19.0622
rfoot 2.78757 -9.51663
rtoes -22.1693
lfemur -16.9668 -3.73355 -15.698
ltibia 22.5014
lfoot -14.5461 6.02384
ltoes -34.7464
761
root -20.4851 17.637 1.6628 12.0277 -37.7707 362.429
lowerback 13.5459 -1.81285 2.9566
upperback 3.82351 -1.95403 2.45853
thorax -3.57089 -1.00785 1.22563
lowerneck -20.8153 -1.25336 -1.60361
upperneck 32.9531 -3.43909 4.89001
head 15.1229 -1.05346 1.64752
rclavicle -4.09496e-014 3.02153e-014
rhumerus -21.7356 40.697 -97.4853
rradius 70.5633
rwrist -23.346
rhand -48.9579 37.6074
rfingers 7.12502
rthumb -21.5886 8.79078
lclavicle -4.09496e-014 3.02153e-014
lhumerus 4.72614 -21.9856 79.7316
lradius 60.419
lwrist 27.2824
lhand -10.6075 62.1559
lfingers 7.12502
lthumb 15.3986 -811.562
rfemur -32.6274 -0.326923 14.0158
rtibia 19.4512
rfoot 1.81677 -8.93712
rtoes -19.756
lfemur -17.5578 -3.61771 -14.7798
ltibia 22.9435
lfoot -14.0916 5.58893
ltoes -34.6482
762
root -20.6499 17.6826 1.68006 12.6407 -36.755 362.468
lowerback 13.8258 -2.01981 3.79299
upperback 3.92048 -2.0904 2.7853
thorax -3.63566 -1.07956 1.12974
lowerneck -20.7154 -1.28206 -1.70139
upperneck 32.3891 -3.2999 4.65663
head 14.8269 -1.03929 1.58344
rclavicle -2.42517e-014 -9.54166e-015
rhumerus -21.5363 40.2957 -97.0223
rradius 70.1725
rwrist -23.122
rhand -47.5772 37.7533
rfingers 7.12502
rthumb -20.2621 8.7902
lclavicle -2.42517e-014 -9.54166e-015
lhumerus 5.66462 -22.9195 79.5349
lradius 59.4913
lwrist 27.0149
lhand -10.8888 61.7473
lfingers 7.12502
lthumb 15.1276 -811.174
rfemur -32.7988 -1.11845 14.4899
rtibia 19.7357
rfoot 0.984244 -9.3025
rtoes -16.0201
lfemur -18.2667 -3.74263 -14.3536
ltibia 23.1342
lfoot -13.2491 5.29192
ltoes -34.5654
763
root -20.8098 17.7289 1.69674 13.0605 -35.8116 363.014
lowerback 13.859 -2.18785 4.18324
upperback 4.05565 -2.25248 3.05571
thorax -3.51515 -1.16 1.21998
lowerneck -20.9155 -1.28483 -1.8039
upperneck 32.1313 -3.11095 4.33042
head 14.738 -1.01139 1.49774
rclavicle -7.79236e-014 -9.54166e-015
rhumerus -21.1593 40.2547 -96.3255
rradius 69.6748
rwrist -23.1236
rhand -49.1785 37.6173
rfingers 7.12502
rthumb -21.8004 8.82512
lclavicle -7.79236e-014 -9.54166e-015
lhumerus 6.9427 -23.9347 79.1897
lradius 58.5042
lwrist 26.5672
lhand -11.162 61.4995
lfingers 7.12502
lthumb 14.8645 -810.946
rfemur -33.105 -1.26339 14.2625
rtibia 19.993
rfoot 0.369639 -10.3064
rtoes -13.7761
lfemur -18.9777 -3.71721 -14.3666
ltibia 23.0288
lfoot -12.3894 4.64512
ltoes -35.3211
